<?xml version="1.0" standalone="no"?>
<!DOCTYPE svg PUBLIC "-//W3C//DTD SVG 20010904//EN"
 "http://www.w3.org/TR/2001/REC-SVG-20010904/DTD/svg10.dtd">
<svg version="1.0" xmlns="http://www.w3.org/2000/svg"
 width="256.000000pt" height="256.000000pt" viewBox="0 0 256.000000 256.000000"
 preserveAspectRatio="xMidYMid meet">

<g transform="translate(0.000000,256.000000) scale(0.100000,-0.100000)"
fill="#000000" stroke="none">
<path d="M560 2365 c-101 -23 -240 -96 -317 -168 -167 -156 -237 -316 -237
-537 0 -115 17 -200 61 -318 l16 -42 235 2 236 3 63 105 c34 58 70 111 80 118
23 16 84 15 109 -2 11 -8 58 -73 105 -145 46 -72 87 -131 90 -131 3 0 52 127
109 283 64 171 113 291 127 305 31 31 95 31 127 -1 23 -23 29 -38 144 -347
l69 -185 181 -5 c177 -5 182 -6 206 -30 39 -39 38 -95 0 -134 l-27 -26 -232 0
c-227 0 -233 1 -256 23 -16 14 -46 80 -84 184 -33 90 -63 159 -66 155 -4 -4
-47 -115 -95 -247 -96 -260 -116 -295 -174 -295 -17 0 -40 5 -51 11 -11 6 -63
76 -116 157 -52 81 -98 151 -103 155 -4 5 -22 -16 -39 -47 -56 -98 -51 -96
-297 -96 -118 0 -214 -3 -214 -6 0 -10 61 -85 145 -178 176 -195 590 -534 873
-715 l53 -34 101 68 c305 203 657 494 828 686 190 212 269 342 317 517 33 121
37 289 10 392 -55 203 -193 373 -379 465 -124 61 -211 78 -358 72 -189 -8
-325 -67 -467 -200 l-53 -50 -52 50 c-91 84 -172 134 -288 173 -85 29 -283 37
-380 15z"/>
</g>
</svg>
